<svg xmlns="http://www.w3.org/2000/svg" viewBox="0 0 67.19 11.24"><g id="Calque_2" data-name="Calque 2"><g id="Calque_1-2" data-name="Calque 1"><path d="M3.14.23a3.43,3.43,0,0,1,.92.14A2.58,2.58,0,0,1,5,.82a2.4,2.4,0,0,1,.66.81,2.64,2.64,0,0,1,.26,1.21A3.44,3.44,0,0,1,5.63,4.1,4,4,0,0,1,5,5.21a4.25,4.25,0,0,1-1.06.86,4.26,4.26,0,0,1-1.39.49c0,.32,0,.59,0,.83s0,.4,0,.56,0,.28,0,.39,0,.21,0,.3l.06.26a1.87,1.87,0,0,1-.44.26l-.38.12a.84.84,0,0,1-.35,0A2.58,2.58,0,0,1,1.43,9a2,2,0,0,1-.07-.48c0-.19,0-.44,0-.74s0-.69,0-1.16l-.2,0-.2,0a1.58,1.58,0,0,1-.11-.33c0-.1,0-.17,0-.24a.74.74,0,0,1,0-.18H1.4c0-.36,0-.73.05-1.12s0-.76.05-1.13,0-.72,0-1.06,0-.64,0-.91A2.39,2.39,0,0,0,1,2.22a2,2,0,0,0-.34.87.43.43,0,0,1-.26-.15,1.44,1.44,0,0,1-.18-.25A2.18,2.18,0,0,1,0,2.35,1,1,0,0,1,0,1.9a2,2,0,0,1,.17-.43A2.07,2.07,0,0,1,.46,1.1,2.09,2.09,0,0,1,.76.85L1.27.57a2.91,2.91,0,0,1,.59-.2A1.34,1.34,0,0,1,2.15.14.69.69,0,0,1,2.46,0q.18,0,.21.24l.22,0ZM2.5,5.68a4.55,4.55,0,0,0,.69-.28,3.05,3.05,0,0,0,.71-.5,2.61,2.61,0,0,0,.55-.77A2.45,2.45,0,0,0,4.67,3a1.93,1.93,0,0,0-.17-.84,1.55,1.55,0,0,0-.44-.56,1.7,1.7,0,0,0-.59-.32,2.37,2.37,0,0,0-.64-.1H2.71l-.11,0a6.69,6.69,0,0,0,0,.8c0,.2,0,.44,0,.71s0,.58,0,.9,0,.66,0,1S2.5,5.34,2.5,5.68Z"/><path d="M7.05,6.39c.09-.28.17-.52.24-.71s.12-.35.17-.47l.14-.34c.05-.13.1-.25.16-.38s.12-.24.18-.34a1.46,1.46,0,0,1,.18-.26.69.69,0,0,1,.14-.15.68.68,0,0,1,.21,0,1.65,1.65,0,0,1,.38.12,1.25,1.25,0,0,1,.39.24.79.79,0,0,1,.25.37,2.48,2.48,0,0,1,0,.7q0,.44-.06.9c0,.3-.05.59-.06.86a2.07,2.07,0,0,0,.05.62l.1.24L9.67,8a.61.61,0,0,0,.15.17c-.23.09-.41.15-.55.19A1.78,1.78,0,0,1,9,8.43a.23.23,0,0,1-.18,0,.35.35,0,0,1-.17-.17,1.4,1.4,0,0,1-.14-.45,1.05,1.05,0,0,1,0-.33c0-.15,0-.33,0-.52s0-.4,0-.62,0-.41.05-.6,0-.35,0-.49a1.22,1.22,0,0,0,0-.28.51.51,0,0,0-.17-.29c-.07-.06-.12-.07-.16,0a2.66,2.66,0,0,0-.31.6c-.11.29-.22.6-.32.93s-.19.66-.27,1A7.3,7.3,0,0,0,7.25,8c0,.05,0,.09-.11.15l-.25.13a1.53,1.53,0,0,1-.26.08.22.22,0,0,1-.18,0l-.14-.17a.66.66,0,0,1-.13-.43q0-.3,0-.81c0-.34,0-.69,0-1.07V3.52c0-.62,0-1.45,0-2.47L6.41.93a.88.88,0,0,1,.2-.09A.89.89,0,0,1,6.8.77c.34-.09.52-.09.53,0s0,.33,0,.75c0,.18,0,.4,0,.68s0,.6,0,1,0,.85-.07,1.38S7.09,5.71,7.05,6.39Z"/><path d="M11.27,1.75a.79.79,0,0,1,.44.14.43.43,0,0,1,.22.38.69.69,0,0,1-.09.34,1.06,1.06,0,0,1-.22.29,1,1,0,0,1-.29.21.73.73,0,0,1-.31.07.67.67,0,0,1-.3-.06A.71.71,0,0,1,10.54,3a.4.4,0,0,1-.09-.2.68.68,0,0,1,0-.2,1.3,1.3,0,0,1,0-.26A.68.68,0,0,1,10.59,2a.8.8,0,0,1,.26-.21A1,1,0,0,1,11.27,1.75Zm-.82,2.33s.06-.09.19-.15a2.19,2.19,0,0,1,.41-.13,1.7,1.7,0,0,1,.42-.06c.13,0,.2,0,.2.09s0,.28,0,.49,0,.45-.05.68l-.07.72c0,.24,0,.44,0,.6s0,.36-.05.57,0,.36,0,.57,0,.43,0,.64q0,.06-.12.12a1,1,0,0,1-.26.09l-.27,0c-.08,0-.13,0-.14-.05a1.66,1.66,0,0,1,0-.16c0-.08,0-.19,0-.34s0-.33,0-.56,0-.51,0-.84a13.1,13.1,0,0,0,0-1.5C10.47,4.53,10.46,4.26,10.45,4.08ZM11,2.84a.33.33,0,0,0,.15,0l.17-.12a1,1,0,0,0,.13-.16.3.3,0,0,0,.05-.14.08.08,0,0,0-.09-.09.37.37,0,0,0-.15.05l-.17.11a.57.57,0,0,0-.13.14.24.24,0,0,0-.06.15C10.88,2.8,10.91,2.84,11,2.84Z"/><path d="M14,.64c0,.28,0,.6-.08,1s-.08.76-.13,1.19-.08.86-.12,1.32-.08.93-.12,1.39,0,.85,0,1.15a4.52,4.52,0,0,0,.06.72,1.7,1.7,0,0,0,.12.44,1.66,1.66,0,0,0,.22.32,1.88,1.88,0,0,1-.29.14l-.22.07a1,1,0,0,1-.21,0,.36.36,0,0,1-.3-.17,1.29,1.29,0,0,1-.21-.44,4.39,4.39,0,0,1-.12-.61c0-.22,0-.44,0-.66s0-.51,0-.81,0-.64,0-1,0-.71.06-1.09.05-.75.06-1.13,0-.55,0-.78,0-.39,0-.56a.77.77,0,0,0,0-.3A.49.49,0,0,1,13,.71l.2-.08A1,1,0,0,1,13.4.57h.22a.68.68,0,0,1,.2,0Z"/><path d="M15.44,1.75a.82.82,0,0,1,.45.14.44.44,0,0,1,.21.38.69.69,0,0,1-.09.34,1.06,1.06,0,0,1-.22.29.86.86,0,0,1-.29.21.73.73,0,0,1-.31.07.67.67,0,0,1-.3-.06A.71.71,0,0,1,14.71,3a.72.72,0,0,1-.09-.2,1.36,1.36,0,0,1,0-.2,1.3,1.3,0,0,1,0-.26A.84.84,0,0,1,14.76,2,.8.8,0,0,1,15,1.83,1,1,0,0,1,15.44,1.75Zm-.82,2.33s.06-.09.19-.15a2.19,2.19,0,0,1,.41-.13,1.77,1.77,0,0,1,.43-.06c.12,0,.19,0,.19.09s0,.28,0,.49L15.76,5l-.07.72c0,.24,0,.44,0,.6s0,.36-.05.57,0,.36,0,.57,0,.43,0,.64q0,.06-.12.12a1,1,0,0,1-.26.09l-.27,0c-.08,0-.13,0-.14-.05a.71.71,0,0,1,0-.16,1.92,1.92,0,0,1-.05-.34c0-.14,0-.33,0-.56s0-.51,0-.84c0-.65,0-1.15,0-1.5S14.63,4.26,14.62,4.08Zm.53-1.24a.41.41,0,0,0,.16,0l.16-.12a1,1,0,0,0,.13-.16.3.3,0,0,0,.05-.14.08.08,0,0,0-.09-.09.37.37,0,0,0-.15.05l-.17.11a.57.57,0,0,0-.13.14.24.24,0,0,0-.06.15A.1.1,0,0,0,15.15,2.84Z"/><path d="M18.93,3.59a1,1,0,0,1,.61.19,1.6,1.6,0,0,1,.48.49,2.63,2.63,0,0,1,.32.7,2.74,2.74,0,0,1,.12.81,4,4,0,0,1-.1.89,3.3,3.3,0,0,1-.29.87,1.8,1.8,0,0,1-.52.66,1.13,1.13,0,0,1-.77.27,1,1,0,0,1-.68-.27,1.57,1.57,0,0,1-.5-.66,6.24,6.24,0,0,1-.11.84,6,6,0,0,0-.08,1c0,.12,0,.25,0,.4s0,.3,0,.45a2.5,2.5,0,0,0,.07.41,1.21,1.21,0,0,0,.1.29,2,2,0,0,1-.36.18,2,2,0,0,1-.27.08l-.25,0a.2.2,0,0,1-.2-.12,1.66,1.66,0,0,1,0-.46c0-.14,0-.34,0-.6s0-.57.05-.9,0-.69.06-1.06L16.69,7c0-.36,0-.69,0-1s0-.57,0-.78,0-.46,0-.6,0-.26,0-.33a.46.46,0,0,0,0-.16.37.37,0,0,0-.06-.1,1,1,0,0,1,.25-.15,1.71,1.71,0,0,1,.3-.09.86.86,0,0,1,.27,0,.47.47,0,0,1,.19.06.34.34,0,0,1,.09.17,2.06,2.06,0,0,1,.05.35,2.85,2.85,0,0,1,.51-.53A1,1,0,0,1,18.93,3.59Zm-.45,4.19a.57.57,0,0,0,.4-.2,2.16,2.16,0,0,0,.34-.51,2.94,2.94,0,0,0,.23-.69,3.35,3.35,0,0,0,.09-.76A2.5,2.5,0,0,0,19.47,5a1.58,1.58,0,0,0-.19-.43A.7.7,0,0,0,19,4.3a.48.48,0,0,0-.21-.06.61.61,0,0,0-.42.18,1.77,1.77,0,0,0-.36.47,2.84,2.84,0,0,0-.24.64,3.27,3.27,0,0,0-.08.7,2.93,2.93,0,0,0,.06.61,2,2,0,0,0,.17.49,1.08,1.08,0,0,0,.24.33A.41.41,0,0,0,18.48,7.78Z"/><path d="M23.42,3.59a1,1,0,0,1,.61.19,1.6,1.6,0,0,1,.48.49,3,3,0,0,1,.32.7,2.73,2.73,0,0,1,.11.81,4.63,4.63,0,0,1-.09.89,3.3,3.3,0,0,1-.29.87A1.91,1.91,0,0,1,24,8.2a1.15,1.15,0,0,1-.77.27,1.08,1.08,0,0,1-.69-.27,1.64,1.64,0,0,1-.49-.66,8.41,8.41,0,0,1-.11.84,6,6,0,0,0-.08,1c0,.12,0,.25,0,.4l0,.45a2.48,2.48,0,0,0,.08.41,1.21,1.21,0,0,0,.1.29,2,2,0,0,1-.36.18,2,2,0,0,1-.27.08l-.25,0a.19.19,0,0,1-.2-.12,1.66,1.66,0,0,1,0-.46c0-.14,0-.34,0-.6s0-.57,0-.9,0-.69.06-1.06L21.18,7c0-.36,0-.69,0-1s0-.57,0-.78,0-.46,0-.6,0-.26,0-.33a.46.46,0,0,0,0-.16L21.1,4a1,1,0,0,1,.25-.15,1.71,1.71,0,0,1,.3-.09.82.82,0,0,1,.27,0,.47.47,0,0,1,.19.06A.34.34,0,0,1,22.2,4c0,.08,0,.2.05.35a2.85,2.85,0,0,1,.51-.53A1,1,0,0,1,23.42,3.59ZM23,7.78a.57.57,0,0,0,.41-.2,2.16,2.16,0,0,0,.34-.51,3.49,3.49,0,0,0,.23-.69A3.35,3.35,0,0,0,24,5.62,2.12,2.12,0,0,0,24,5a1.59,1.59,0,0,0-.18-.43.8.8,0,0,0-.24-.22.48.48,0,0,0-.21-.06.65.65,0,0,0-.43.18,1.75,1.75,0,0,0-.35.47,2.84,2.84,0,0,0-.24.64,2.74,2.74,0,0,0-.09.7,2.92,2.92,0,0,0,.07.61,2,2,0,0,0,.17.49,1.08,1.08,0,0,0,.24.33A.41.41,0,0,0,23,7.78Z"/><path d="M27.19,8.36a1.53,1.53,0,0,1-1.26-.55,2.21,2.21,0,0,1-.45-1.44,3.5,3.5,0,0,1,.19-1.17,3.33,3.33,0,0,1,.48-.94,2.48,2.48,0,0,1,.71-.63,1.72,1.72,0,0,1,.85-.23,1,1,0,0,1,.74.32,1.2,1.2,0,0,1,.3.88,1.76,1.76,0,0,1-.16.74,2.28,2.28,0,0,1-.43.66,2.1,2.1,0,0,1-.58.46,1.22,1.22,0,0,1-.61.18.91.91,0,0,1-.31,0,.72.72,0,0,1-.24-.14,1.4,1.4,0,0,0,.29.93.9.9,0,0,0,.67.27,1,1,0,0,0,.5-.12,1.77,1.77,0,0,0,.37-.27A1.79,1.79,0,0,0,28.5,7a2.58,2.58,0,0,0,.12-.24.14.14,0,0,1,.13-.07c.06,0,.09.05.09.14a1.29,1.29,0,0,1-.09.39,2,2,0,0,1-.29.53,1.75,1.75,0,0,1-.51.46A1.33,1.33,0,0,1,27.19,8.36Zm.54-4.45a.66.66,0,0,0-.26.15,2.05,2.05,0,0,0-.41.42,3.94,3.94,0,0,0-.4.68,2.65,2.65,0,0,0-.23.88,2.71,2.71,0,0,0,1.12-.51,1.31,1.31,0,0,0,.41-1A.84.84,0,0,0,27.87,4C27.82,4,27.77,3.91,27.73,3.91Z"/><path d="M38.61,9.23A.53.53,0,0,1,38.13,9,1.08,1.08,0,0,1,38,8.44a5.13,5.13,0,0,1,0-.86c0-.33,0-.69,0-1.08,0-.77,0-1.48.08-2.12a14.43,14.43,0,0,0,0-1.85V2.4a.5.5,0,0,0,0-.12L38,2.73c-.05.17-.11.35-.18.56-.14.44-.28.88-.42,1.35L37,6l-.36,1.2c-.11.38-.21.69-.3.94a2.67,2.67,0,0,1-.25.55.74.74,0,0,1-.25.25.36.36,0,0,1-.24.06l-.24,0A7.23,7.23,0,0,0,35.21,8c-.09-.36-.18-.7-.27-1s-.23-.77-.36-1.17c-.18-.69-.37-1.32-.56-1.89s-.35-1-.46-1.4c-.05.39-.08.85-.11,1.37s0,1,0,1.54,0,1,0,1.46,0,.83.07,1.11c0,.12,0,.23,0,.35s0,.21.07.31a2,2,0,0,0,.1.29L33.56,9l-.18.06-.22.06a1.06,1.06,0,0,1-.66,0,.59.59,0,0,1-.25-.47,6.27,6.27,0,0,1,0-.66c0-.32,0-.69,0-1.11s0-.85,0-1.32,0-.89.07-1.28.07-.67.1-1,.06-.7.09-1.13.07-.9.11-1.4A.25.25,0,0,1,32.71.6a.76.76,0,0,1,.18-.09l.23-.07.36-.06.24,0h.08c.11.21.18.38.24.52s.11.3.17.48.13.44.22.74.22.73.39,1.28c.24.76.44,1.42.61,2s.29,1,.38,1.29c0-.1.11-.21.16-.33s.11-.27.17-.44.12-.38.19-.61.14-.5.23-.82L36.9,3.3c.09-.34.2-.74.31-1.18s.22-.9.32-1.38l.61-.22L38.5.39l.23-.06a.61.61,0,0,1,.14.07L39,.57a1.49,1.49,0,0,1,.17.32V2.25c0,.32,0,.66,0,1s0,.73,0,1.1,0,.74,0,1.09,0,.66,0,.93,0,.77,0,1.06a4.38,4.38,0,0,0,.07.72,1.48,1.48,0,0,0,.14.46.78.78,0,0,0,.22.28L39.41,9a1.38,1.38,0,0,1-.24.11l-.29.08A.93.93,0,0,1,38.61,9.23Z"/><path d="M43.66,7.64a1,1,0,0,0,.07.15.5.5,0,0,0,.1.11A.28.28,0,0,0,44,8a.65.65,0,0,1-.17.23s0,0-.08,0a.83.83,0,0,1-.31,0A.69.69,0,0,1,43,8.14.52.52,0,0,1,42.89,8a.71.71,0,0,1-.1-.26,3.13,3.13,0,0,1-.07-.44,2,2,0,0,1-.37.56,1.74,1.74,0,0,1-.4.3,1.31,1.31,0,0,1-.46.15,1.15,1.15,0,0,1-.55-.1,1.1,1.1,0,0,1-.45-.38,1.91,1.91,0,0,1-.28-.61,2.42,2.42,0,0,1-.05-.82,2.79,2.79,0,0,1,.18-.86,3.31,3.31,0,0,1,.37-.67,3,3,0,0,1,.44-.49A3.8,3.8,0,0,1,41.6,4,2.38,2.38,0,0,1,42,3.8l.2-.08a.63.63,0,0,1,.23,0,.26.26,0,0,1,.16.1l.06.09a.66.66,0,0,0,.06.12l.06.17a3,3,0,0,0-.53.29,1.82,1.82,0,0,0-.45.38,1.82,1.82,0,0,0-.36.54,2.81,2.81,0,0,0-.23.77,1.38,1.38,0,0,0,.06.92.45.45,0,0,0,.5.3,1,1,0,0,0,.36-.23,1.75,1.75,0,0,0,.32-.42A3.39,3.39,0,0,0,42.75,6c0-.47.07-.84.1-1.11s0-.47.07-.61S43,4,43,3.91a.33.33,0,0,1,.14-.11.85.85,0,0,1,.24-.09,1,1,0,0,1,.23,0h.14s0,.11,0,.29,0,.42,0,.69,0,.58,0,.91,0,.63,0,.92,0,.54,0,.75A1.86,1.86,0,0,0,43.66,7.64Z"/><path d="M47.84,4.64a.84.84,0,0,1-.08.33,2.27,2.27,0,0,1-.22.32,1.86,1.86,0,0,1-.29.27.78.78,0,0,1-.3.13A1.34,1.34,0,0,0,47,5.13a.56.56,0,0,0-.12-.3.34.34,0,0,0-.23-.11.51.51,0,0,0-.4.24,2.46,2.46,0,0,0-.34.58,4.24,4.24,0,0,0-.22.74,3.15,3.15,0,0,0-.08.71,2,2,0,0,0,0,.43c0,.12,0,.24,0,.37a.9.9,0,0,0,.09.29,1.36,1.36,0,0,1-.23.14,1.07,1.07,0,0,1-.33.11.51.51,0,0,1-.3-.06.41.41,0,0,1-.15-.35,5.22,5.22,0,0,1,0-.58V6.69c0-.21,0-.43,0-.64s0-.4,0-.58c0-.35,0-.61,0-.8s0-.37,0-.54.06-.07.16-.13l.35-.16a1,1,0,0,1,.36-.08c.11,0,.17,0,.17.07s0,.25,0,.51,0,.51-.08.79a4.9,4.9,0,0,1,.22-.48,3,3,0,0,1,.31-.48,1.74,1.74,0,0,1,.4-.37.84.84,0,0,1,.49-.15.45.45,0,0,1,.34.13,1,1,0,0,1,.22.29,1.46,1.46,0,0,1,.12.33A1.52,1.52,0,0,1,47.84,4.64Z"/><path d="M50.81,4.58a.33.33,0,0,0-.21.1,1.05,1.05,0,0,0-.21.27,4.07,4.07,0,0,0-.21.37,3.89,3.89,0,0,0-.19.42l-.39,1a3.88,3.88,0,0,0-.22.9.13.13,0,0,0,0,.06v0a.15.15,0,0,0,0,.07,1.31,1.31,0,0,1-.07.27.24.24,0,0,1-.17.13l-.28,0a.83.83,0,0,1-.27,0,.17.17,0,0,1-.12-.08A.44.44,0,0,1,48.39,8l0-.17V7.68s0-.19,0-.44,0-.52,0-.84,0-.61,0-.92,0-.52,0-.68,0-.21,0-.31l-.06-.25A.78.78,0,0,0,48.21,4l.25-.11a1.53,1.53,0,0,1,.24-.07,1.06,1.06,0,0,1,.23-.05,1.58,1.58,0,0,1,.44,0c.11,0,.16.1.16.25s0,.33,0,.61,0,.66-.06,1.16c.08-.2.18-.42.3-.67a7.62,7.62,0,0,1,.38-.69,3.46,3.46,0,0,1,.41-.54.58.58,0,0,1,.4-.21.84.84,0,0,1,.29.05,1.36,1.36,0,0,1,.33.14,1.85,1.85,0,0,1,.27.19.63.63,0,0,1,.17.21,1.34,1.34,0,0,1,.06.37,5,5,0,0,1,0,.55,3.55,3.55,0,0,1,.21-.44l.24-.39a2.81,2.81,0,0,1,.25-.31A1,1,0,0,1,53,3.89a.61.61,0,0,1,.34,0,2.91,2.91,0,0,1,.39.12,1.63,1.63,0,0,1,.34.21.48.48,0,0,1,.18.22,1.88,1.88,0,0,1,.06.37c0,.16,0,.34,0,.54s0,.39,0,.6,0,.39,0,.54a7.39,7.39,0,0,0,0,1.08.76.76,0,0,0,.28.58,1.25,1.25,0,0,1-.31.15l-.24.08a1.15,1.15,0,0,1-.22,0,.38.38,0,0,1-.22-.07.43.43,0,0,1-.12-.17.46.46,0,0,1-.06-.23,2.46,2.46,0,0,1,0-.26c0-.08,0-.21,0-.39s0-.4,0-.63,0-.48,0-.72a6.77,6.77,0,0,0-.05-.68,1.56,1.56,0,0,0-.14-.51c-.06-.13-.14-.2-.25-.2a.34.34,0,0,0-.27.17,1.85,1.85,0,0,0-.25.45,3.25,3.25,0,0,0-.2.6c-.06.23-.12.45-.16.67s-.08.42-.11.6a4.21,4.21,0,0,0,0,.44v.3c0,.13,0,.25,0,.38s0,.09-.13.12a.78.78,0,0,1-.31.05.65.65,0,0,1-.31-.08A.22.22,0,0,1,51.15,8V7.65c0-.16,0-.33,0-.53s0-.4,0-.62,0-.42,0-.61V5.43c0-.15,0-.3,0-.43A1.14,1.14,0,0,0,51,4.69.2.2,0,0,0,50.81,4.58Z"/><path d="M58.47,6.22a2.85,2.85,0,0,1-.16.84,2.07,2.07,0,0,1-.37.67,1.61,1.61,0,0,1-.55.46,1.69,1.69,0,0,1-.71.17A1.11,1.11,0,0,1,56,8.2a1.72,1.72,0,0,1-.52-.49A2.28,2.28,0,0,1,55.19,7a2.72,2.72,0,0,1-.07-1,3,3,0,0,1,.22-1,3.82,3.82,0,0,1,.4-.71,2,2,0,0,1,.39-.42l.23-.15a.23.23,0,0,1,.16,0l.15,0a.15.15,0,0,1,0,.06.52.52,0,0,1,.06.3.65.65,0,0,1,.16-.21.94.94,0,0,1,.18-.12.69.69,0,0,1,.24-.05.46.46,0,0,1,.28.13,1.45,1.45,0,0,1,.4.44,3.28,3.28,0,0,1,.34.79A3.52,3.52,0,0,1,58.47,6.22Zm-.79-.14a5.43,5.43,0,0,0,0-.57,2.77,2.77,0,0,0-.1-.53,1.44,1.44,0,0,0-.15-.39c-.07-.09-.13-.14-.19-.14a.77.77,0,0,0-.24.1,1.23,1.23,0,0,0-.23.23,1.52,1.52,0,0,0-.25.43s0-.07,0-.13,0-.13,0-.22a2.77,2.77,0,0,1,0-.37,1.51,1.51,0,0,0-.25.47,4.07,4.07,0,0,0-.14.52c0,.19-.05.39-.07.59a4.29,4.29,0,0,0,0,.62,2.66,2.66,0,0,0,.14.54,1.32,1.32,0,0,0,.24.37.44.44,0,0,0,.34.13.52.52,0,0,0,.35-.16,1.36,1.36,0,0,0,.27-.39,2.54,2.54,0,0,0,.19-.53A4,4,0,0,0,57.68,6.08Z"/><path d="M63.51,3l-.34,0-.44,0-.55,0h-.74l-.92,0c0,.2,0,.41,0,.62s0,.42,0,.62c0,.37-.07.76-.1,1.15s0,.76,0,1.11a7.06,7.06,0,0,0,.06,1,1.81,1.81,0,0,0,.24.67,1.08,1.08,0,0,1-.3.16L60,8.3a1.15,1.15,0,0,1-.31,0,.29.29,0,0,1-.23-.1.45.45,0,0,1-.11-.32,7.3,7.3,0,0,1,0-.81c0-.27,0-.55,0-.85s0-.61.07-1,0-.71.07-1.12,0-.83,0-1.23H58.47a.38.38,0,0,1-.08-.11,1.52,1.52,0,0,1-.12-.21c-.05-.09-.12-.22-.2-.4h1l.51,0c0-.13,0-.26,0-.4s0-.23,0-.37,0-.26,0-.38,0-.1.17-.17a1.82,1.82,0,0,1,.37-.18A1.4,1.4,0,0,1,60.44.6c.11,0,.17,0,.17.09s0,.24,0,.51,0,.59,0,1h.18c.41,0,.74,0,1-.05a4.44,4.44,0,0,1,.62,0,1.42,1.42,0,0,1,.44.12,2.22,2.22,0,0,1,.42.31.67.67,0,0,1,.14.15.86.86,0,0,1,.1.16A.39.39,0,0,1,63.51,3Z"/><path d="M66,3,65.6,3c-.14,0-.29,0-.44,0l-.55,0h-.73l-.92,0c0,.2,0,.41,0,.62s0,.42-.05.62c0,.37-.08.76-.1,1.15s0,.76,0,1.11a7.06,7.06,0,0,0,.06,1,1.51,1.51,0,0,0,.24.67,1.08,1.08,0,0,1-.3.16,2.11,2.11,0,0,1-.3.07,1,1,0,0,1-.3,0,.31.31,0,0,1-.24-.1.5.5,0,0,1-.1-.32,7.3,7.3,0,0,1,0-.81c0-.27,0-.55,0-.85s0-.61.06-1,0-.71.07-1.12S62,3.36,62,3H60.91a.38.38,0,0,1-.08-.11l-.13-.21c-.05-.09-.11-.22-.19-.4h1l.52,0c0-.13,0-.26,0-.4s0-.23,0-.37,0-.26,0-.38S62,1,62.13.89A2.53,2.53,0,0,1,62.5.71,1.66,1.66,0,0,1,62.87.6c.12,0,.17,0,.17.09V1.2c0,.27,0,.59,0,1h.17c.42,0,.75,0,1-.05a4.44,4.44,0,0,1,.62,0,1.42,1.42,0,0,1,.44.12,2.22,2.22,0,0,1,.42.31.67.67,0,0,1,.14.15.86.86,0,0,1,.1.16A.39.39,0,0,1,66,3Z"/><path d="M65.55,8.36a1.53,1.53,0,0,1-1.27-.55,2.27,2.27,0,0,1-.44-1.44A3.77,3.77,0,0,1,64,5.2a3.11,3.11,0,0,1,.49-.94,2.36,2.36,0,0,1,.71-.63,1.72,1.72,0,0,1,.85-.23,1,1,0,0,1,.73.32,1.17,1.17,0,0,1,.31.88,1.78,1.78,0,0,1-.17.74,2.29,2.29,0,0,1-1,1.12,1.25,1.25,0,0,1-.61.18,1,1,0,0,1-.32,0,.79.79,0,0,1-.23-.14,1.4,1.4,0,0,0,.29.93.87.87,0,0,0,.67.27,1,1,0,0,0,.5-.12,2.07,2.07,0,0,0,.37-.27A1.36,1.36,0,0,0,66.85,7c.06-.11.11-.19.13-.24a.11.11,0,0,1,.12-.07c.06,0,.09.05.09.14a1.29,1.29,0,0,1-.09.39,1.94,1.94,0,0,1-.28.53,2,2,0,0,1-.51.46A1.33,1.33,0,0,1,65.55,8.36Zm.54-4.45a.55.55,0,0,0-.26.15,2.05,2.05,0,0,0-.41.42,3.39,3.39,0,0,0-.4.68,2.65,2.65,0,0,0-.23.88,2.6,2.6,0,0,0,1.11-.51,1.28,1.28,0,0,0,.41-1A1,1,0,0,0,66.23,4C66.18,4,66.13,3.91,66.09,3.91Z"/></g></g></svg>